<svg xmlns="http://www.w3.org/2000/svg" xmlns:xlink="http://www.w3.org/1999/xlink" width="40" height="40" viewBox="0 0 40 40"><defs><clipPath id="b"><rect width="40" height="40"/></clipPath></defs><g id="a" clip-path="url(#b)"><g transform="translate(1 1)"><g transform="translate(0 0)"><g transform="translate(0 0)"><path d="M340.3,366.7h-.825A2.475,2.475,0,0,0,337,369.172v1.65a4.125,4.125,0,0,0,4.125,4.125h29.7a4.123,4.123,0,0,0,4.125-4.125V342.774a2.475,2.475,0,0,0-2.475-2.475h-4.125v-.825a2.475,2.475,0,1,0-4.949,0v.825h-3.3v-.825a2.475,2.475,0,1,0-4.949,0v.825h-3.3v-.825a2.475,2.475,0,1,0-4.95,0v.825h-4.125a2.475,2.475,0,0,0-2.475,2.475Zm33-18.148v22.273a2.475,2.475,0,0,1-4.949,0v-1.65a2.475,2.475,0,0,0-2.475-2.475H341.949V348.549Zm-7.424,19.8h-26.4a.825.825,0,0,0-.825.825v1.65a2.475,2.475,0,0,0,2.475,2.475h26.4a4.126,4.126,0,0,1-.825-2.475v-1.65A.825.825,0,0,0,365.872,368.347Zm6.6-26.4h-7.424v.825a.825.825,0,0,0,.825.825.825.825,0,0,1,0,1.65,2.475,2.475,0,0,1-2.475-2.475v-.825h-6.6v.825a.825.825,0,0,0,.825.825.825.825,0,1,1,0,1.65,2.475,2.475,0,0,1-2.475-2.475v-.825h-6.6v.825a.825.825,0,0,0,.825.825.825.825,0,1,1,0,1.65,2.475,2.475,0,0,1-2.475-2.475v-.825h-4.125a.825.825,0,0,0-.825.825V346.9H373.3v-4.125A.825.825,0,0,0,372.471,341.949Zm-23.1-3.3a.825.825,0,0,0-.825.825v.825h1.65v-.825A.825.825,0,0,0,349.374,338.65Zm8.249,0a.825.825,0,0,0-.825.825v.825h1.65v-.825A.825.825,0,0,0,357.623,338.65Zm8.249,0a.825.825,0,0,0-.825.825v.825h1.65v-.825A.825.825,0,0,0,365.872,338.65Z" transform="translate(-337 -337)" fill="#ffa766" fill-rule="evenodd"/><g transform="translate(8.917 14.39)"><g transform="translate(0 8.751)"><path d="M252.807,67a1.807,1.807,0,1,0,1.807,1.807A1.808,1.808,0,0,0,252.807,67Zm0,1.2a.6.6,0,1,1-.6.6A.6.6,0,0,1,252.807,68.2Z" transform="translate(-251 -67)" fill="#f16261" fill-rule="evenodd"/></g><g transform="translate(6.499)"><path d="M252.908,67a1.908,1.908,0,1,0,1.908,1.908A1.908,1.908,0,0,0,252.908,67Zm0,1.272a.636.636,0,1,1-.636.636A.636.636,0,0,1,252.908,68.272Z" transform="translate(-251 -67)" fill="#f16261" fill-rule="evenodd"/></g><g transform="translate(6.599 8.751)"><path d="M252.807,67a1.807,1.807,0,1,0,1.807,1.807A1.808,1.808,0,0,0,252.807,67Zm0,1.2a.6.6,0,1,1-.6.6A.6.6,0,0,1,252.807,68.2Z" transform="translate(-251 -67)" fill="#f16261" fill-rule="evenodd"/></g><g transform="translate(13.098)"><path d="M252.908,67a1.908,1.908,0,1,0,1.908,1.908A1.908,1.908,0,0,0,252.908,67Zm0,1.272a.636.636,0,1,1-.636.636A.636.636,0,0,1,252.908,68.272Z" transform="translate(-251 -67)" fill="#f16261" fill-rule="evenodd"/></g><g transform="translate(19.698)"><path d="M252.908,67a1.908,1.908,0,1,0,1.908,1.908A1.908,1.908,0,0,0,252.908,67Zm0,1.272a.636.636,0,1,1-.636.636A.636.636,0,0,1,252.908,68.272Z" transform="translate(-251 -67)" fill="#f16261" fill-rule="evenodd"/></g></g><path d="M366.584,364.895l-1.545-1.545a1.194,1.194,0,1,0-1.689,1.689l1.545,1.545-1.545,1.545a1.194,1.194,0,1,0,1.689,1.689l1.545-1.544,1.545,1.544a1.194,1.194,0,0,0,1.689-1.689l-1.544-1.545,1.544-1.545a1.194,1.194,0,1,0-1.689-1.689Z" transform="translate(-340.885 -341.911)" fill="#f16261" fill-rule="evenodd"/></g></g></g></g></svg>