<svg xmlns="http://www.w3.org/2000/svg" width="72" height="72" viewBox="0 0 72 72"><g transform="translate(-152 -112)"><circle cx="36" cy="36" r="36" transform="translate(152 112)" fill="#fff"/><g transform="translate(153.001 115.5)"><g transform="translate(19.999 14.5)"><path d="M20,62.155v5.1a3.425,3.425,0,0,0,3.42,3.42H46.893a3.425,3.425,0,0,0,3.42-3.42v-5.1a8.658,8.658,0,0,0-8.658-8.664l-13,0A8.68,8.68,0,0,0,20,62.154Zm8.66-6.639H41.654a6.636,6.636,0,0,1,6.639,6.639v5.1a1.4,1.4,0,0,1-1.4,1.4H23.42a1.4,1.4,0,0,1-1.4-1.4v-5.1a6.649,6.649,0,0,1,6.639-6.639Z" transform="translate(-19.999 -33.79)"/><path d="M41.589,31.678A8.589,8.589,0,1,0,33,23.089,8.6,8.6,0,0,0,41.589,31.678Zm0-15.157a6.568,6.568,0,1,1-6.568,6.568A6.573,6.573,0,0,1,41.589,16.521Z" transform="translate(-26.432 -14.5)"/></g></g></g></svg>