<svg xmlns="http://www.w3.org/2000/svg" xmlns:xlink="http://www.w3.org/1999/xlink" width="40" height="40" viewBox="0 0 40 40"><defs><clipPath id="b"><rect width="40" height="40"/></clipPath></defs><g id="a" clip-path="url(#b)"><g transform="translate(4 1)"><path d="M14.021,19.144a8.125,8.125,0,0,1-8.053-8.193A8.144,8.144,0,0,1,13.18,2.8c.266-.026.536-.041.807-.041a8.123,8.123,0,0,1,8.053,8.191A8.145,8.145,0,0,1,14.829,19.1C14.562,19.129,14.294,19.144,14.021,19.144ZM30.252,34.361l.021.25c0-.078-.016-.153-.023-.231a1.356,1.356,0,1,1-2.711-.02h0A13.672,13.672,0,0,0,14.028,21.911l-.007,0-.034,0A10.863,10.863,0,0,1,3.218,10.954,10.862,10.862,0,0,1,13.987,0L14,0l.018,0a10.954,10.954,0,0,1,8.916,17.045L22.9,17.1c-.171.254-.349.5-.539.731-.063.083-.132.163-.2.242-.174.2-.346.4-.531.595-.135.138-.281.266-.424.4-.213.193-.427.382-.655.557s-.455.351-.7.51c-.044.029-.081.063-.123.089a16.528,16.528,0,0,1,10.479,13.84A1.418,1.418,0,0,1,30.252,34.361Z" transform="translate(1.145 0)" fill="#ffa766" fill-rule="evenodd"/><g transform="translate(16.631 26.411) rotate(90)"><path d="M.769,15.981A.863.863,0,0,1,0,15.1V.863a.863.863,0,1,1,1.726,0V15.1a.863.863,0,0,1-.958.876Z" transform="translate(5.181 0)" fill="#f05f63" stroke="#f05f63" stroke-width="0.5"/><path d="M5.923,7.764a.864.864,0,0,1-.539-.3L.205,1.426A.866.866,0,0,1,1.527.306L6.045,5.579,10.562.306a.866.866,0,1,1,1.322,1.119L6.705,7.467a.863.863,0,0,1-.782.3Z" transform="translate(0 8.858)" fill="#f05f63" stroke="#f05f63" stroke-width="0.5"/></g></g></g></svg>