<svg xmlns="http://www.w3.org/2000/svg" xmlns:xlink="http://www.w3.org/1999/xlink" width="40" height="40" viewBox="0 0 40 40"><defs><clipPath id="b"><rect width="40" height="40"/></clipPath></defs><g id="a" clip-path="url(#b)"><g transform="translate(4 1)"><path d="M19.47,19.144a8.125,8.125,0,0,0,8.053-8.193A8.144,8.144,0,0,0,20.312,2.8c-.266-.026-.536-.041-.807-.041a8.123,8.123,0,0,0-8.053,8.191A8.145,8.145,0,0,0,18.663,19.1C18.929,19.129,19.2,19.144,19.47,19.144ZM3.239,34.361l-.021.25c0-.078.016-.153.023-.231a1.356,1.356,0,1,0,2.711-.02h0A13.672,13.672,0,0,1,19.463,21.911l.007,0,.034,0A10.863,10.863,0,0,0,30.274,10.954,10.862,10.862,0,0,0,19.5,0l-.016,0L19.47,0a10.954,10.954,0,0,0-8.916,17.045l.032.052c.171.254.349.5.539.731.063.083.132.163.2.242.174.2.346.4.531.595.135.138.281.266.424.4.213.193.427.382.655.557s.455.351.7.51c.044.029.081.063.123.089A16.528,16.528,0,0,0,3.274,34.059,1.418,1.418,0,0,0,3.239,34.361Z" transform="translate(-3.218 0)" fill="#ffa766" fill-rule="evenodd"/><g transform="translate(31.419 26.411) rotate(90)"><path d="M.769.005A.863.863,0,0,0,0,.882V15.123a.863.863,0,1,0,1.726,0V.882A.863.863,0,0,0,.769.005Z" transform="translate(5.181 0.645)" fill="#f05f63" stroke="#f05f63" stroke-width="0.5"/><path d="M5.923.009a.864.864,0,0,0-.539.3L.205,6.347A.866.866,0,0,0,1.527,7.466L6.045,2.194l4.518,5.273a.866.866,0,1,0,1.322-1.119L6.705.306a.863.863,0,0,0-.782-.3Z" transform="translate(0 0)" fill="#f05f63" stroke="#f05f63" stroke-width="0.5"/></g></g></g></svg>