<svg xmlns="http://www.w3.org/2000/svg" xmlns:xlink="http://www.w3.org/1999/xlink" width="40" height="40" viewBox="0 0 40 40"><defs><clipPath id="b"><rect width="40" height="40"/></clipPath></defs><g id="a" clip-path="url(#b)"><g transform="translate(-5.222 -5)"><g transform="translate(7 5)"><path d="M17.222,957.362a1.333,1.333,0,0,0-1.333,1.333v3.819a3.556,3.556,0,1,0,2.667,0V958.7A1.333,1.333,0,0,0,17.222,957.362Zm17.778,0a1.333,1.333,0,0,0-1.333,1.333v3.819a3.556,3.556,0,1,0,2.667,0V958.7A1.333,1.333,0,0,0,35,957.362ZM11.9,959.14a4.922,4.922,0,0,0-4.9,4.9v28.417a4.922,4.922,0,0,0,4.9,4.9H40.32a4.922,4.922,0,0,0,4.9-4.9V964.043a4.922,4.922,0,0,0-4.9-4.9H38.556a1.333,1.333,0,1,0,0,2.667H40.32a2.206,2.206,0,0,1,2.236,2.236v5.764H9.667v-5.764a2.206,2.206,0,0,1,2.236-2.236h1.764a1.333,1.333,0,1,0,0-2.667H11.9Zm8.736,0a1.335,1.335,0,0,0,.139,2.667H31.445a1.333,1.333,0,1,0,0-2.667Zm-3.417,5.778a.889.889,0,1,1-.889.889A.869.869,0,0,1,17.222,964.918Zm17.778,0a.889.889,0,1,1-.889.889A.869.869,0,0,1,35,964.918ZM9.667,972.473H42.556v19.986A2.206,2.206,0,0,1,40.32,994.7H11.9a2.206,2.206,0,0,1-2.236-2.236Z" transform="translate(-7 -957.362)" fill="#ffa766"/></g></g><path d="M26.111,976.473a1.333,1.333,0,0,0-1.333,1.333V982.7H19.889a1.333,1.333,0,1,0,0,2.667h4.889v4.889a1.333,1.333,0,1,0,2.667,0v-4.889h4.889a1.333,1.333,0,1,0,0-2.667H27.445v-4.889A1.333,1.333,0,0,0,26.111,976.473Z" transform="translate(-6.111 -958.362)" fill="#f05f63"/></g></svg>