<svg xmlns="http://www.w3.org/2000/svg" xmlns:xlink="http://www.w3.org/1999/xlink" width="40" height="40" viewBox="0 0 40 40"><defs><clipPath id="b"><rect width="40" height="40"/></clipPath></defs><g id="a" clip-path="url(#b)"><g transform="translate(-2.5 -2.528)"><path d="M35.893,5.452H31.786V4.711a.784.784,0,0,0-.821-.742H26.033a2.9,2.9,0,0,0-.377-.384,4.523,4.523,0,0,0-5.78-.028,3.144,3.144,0,0,0-.406.411H14.536a.784.784,0,0,0-.821.742v.742H9.607A3.926,3.926,0,0,0,5.5,9.16V37.337a5.5,5.5,0,0,0,5.75,5.191h23A5.5,5.5,0,0,0,40,37.337V9.16a3.926,3.926,0,0,0-4.107-3.708Zm-20.536,0h4.55a.843.843,0,0,0,.7-.358,2.149,2.149,0,0,1,.412-.475,2.667,2.667,0,0,1,3.486.028,2.052,2.052,0,0,1,.382.448.843.843,0,0,0,.7.358h4.55V8.419H15.357V5.452Zm23,31.885a3.926,3.926,0,0,1-4.107,3.708h-23a3.926,3.926,0,0,1-4.107-3.708V9.16A2.356,2.356,0,0,1,9.607,6.936h4.107V9.16a.784.784,0,0,0,.821.742H30.964a.784.784,0,0,0,.821-.742V6.936h4.107A2.356,2.356,0,0,1,38.357,9.16Zm-5.75-16.313a.784.784,0,0,1-.821.742H13.714a.745.745,0,1,1,0-1.483H31.786A.784.784,0,0,1,32.607,21.024Zm0,3.46a.784.784,0,0,1-.821.742H13.714a.745.745,0,1,1,0-1.483H31.786A.784.784,0,0,1,32.607,24.484Zm0,3.461a.784.784,0,0,1-.821.742H13.714a.745.745,0,1,1,0-1.483H31.786A.784.784,0,0,1,32.607,27.945Zm-5.421,3.46a.784.784,0,0,1-.821.742H13.714a.745.745,0,1,1,0-1.483h12.65A.784.784,0,0,1,27.186,31.405Z" transform="translate(0)" fill="#ffa766"/></g><g transform="translate(-2.75 -2.528)"><path d="M33.35,21.024a.8.8,0,0,1-.852.742H13.745a.749.749,0,1,1,0-1.483H32.5A.8.8,0,0,1,33.35,21.024Zm0,3.46a.8.8,0,0,1-.852.742H13.745a.749.749,0,1,1,0-1.483H32.5A.8.8,0,0,1,33.35,24.484Zm0,3.461a.8.8,0,0,1-.852.742H13.745a.749.749,0,1,1,0-1.483H32.5A.8.8,0,0,1,33.35,27.945Zm-5.625,3.46a.8.8,0,0,1-.852.742H13.745a.749.749,0,1,1,0-1.483H26.872A.8.8,0,0,1,27.725,31.405Z" transform="translate(0)" fill="#f05f63"/></g></g></svg>