<svg xmlns="http://www.w3.org/2000/svg" xmlns:xlink="http://www.w3.org/1999/xlink" width="40" height="40" viewBox="0 0 40 40"><defs><clipPath id="b"><rect width="40" height="40"/></clipPath></defs><g id="a" clip-path="url(#b)"><g transform="translate(-2.125 -2.777)"><g transform="translate(3.125 3.777)"><path d="M18.076,3.777a4.842,4.842,0,1,0,4.842,4.842A4.844,4.844,0,0,0,18.076,3.777Zm0,1.3a3.544,3.544,0,1,1-3.544,3.544A3.546,3.546,0,0,1,18.076,5.075Z" transform="translate(-9.042 -3.777)" stroke="#000" stroke-width="0.5" fill-rule="evenodd"/><path d="M7.319,46.013V57.246a.648.648,0,0,0,.648.648h8.386A.649.649,0,0,0,17,57.246V46.013h3.544a.648.648,0,0,0,.648-.648V35.147a4.405,4.405,0,0,0-4.406-4.406H7.531a4.406,4.406,0,0,0-4.406,4.406V45.365a.648.648,0,0,0,.648.648Zm0-1.3V36.981a.648.648,0,0,1,1.3,0V56.6h2.9V46.765a.648.648,0,0,1,1.3,0V56.6h2.9V36.981a.648.648,0,1,1,1.3,0v7.736h2.9v-9.57a3.111,3.111,0,0,0-3.11-3.11H7.531a3.11,3.11,0,0,0-3.11,3.11v9.57h2.9Z" transform="translate(-3.125 -19.561)" stroke="#000" stroke-width="0.5" fill-rule="evenodd"/><path d="M65.986,9.012a8.083,8.083,0,0,0-8.079,8.079,14.315,14.315,0,0,0,1.67,5.3,87.52,87.52,0,0,0,5.877,9.932.649.649,0,0,0,1.066,0A87.529,87.529,0,0,0,72.4,22.389a14.317,14.317,0,0,0,1.67-5.3,8.083,8.083,0,0,0-8.079-8.079Zm0,1.3a6.786,6.786,0,0,1,6.783,6.783,13.037,13.037,0,0,1-1.542,4.74,81.557,81.557,0,0,1-5.242,8.964,81.657,81.657,0,0,1-5.242-8.964,13.037,13.037,0,0,1-1.542-4.74,6.786,6.786,0,0,1,6.783-6.783Z" transform="translate(-35.191 -6.841)" fill="#f68d3f" stroke="#f68d3f" stroke-width="0.5" fill-rule="evenodd"/><path d="M72.281,19.762a3.621,3.621,0,1,0,3.62,3.622A3.623,3.623,0,0,0,72.281,19.762Zm0,1.3a2.324,2.324,0,1,1-2.324,2.324A2.325,2.325,0,0,1,72.281,21.059Z" transform="translate(-41.486 -13.134)" fill="#f68d3f" fill-rule="evenodd"/><path d="M44.218,78.668h3.295a3.3,3.3,0,0,0,3.3-3.3V73.239a2,2,0,0,1,2-2h4.781a.648.648,0,1,0,0-1.3H52.813a3.3,3.3,0,0,0-3.3,3.3v2.132a2,2,0,0,1-2,2H44.218a.648.648,0,0,0,0,1.3Z" transform="translate(-26.8 -42.506)" stroke="#000" stroke-width="0.5" fill-rule="evenodd"/></g></g></g></svg>