<svg xmlns="http://www.w3.org/2000/svg" xmlns:xlink="http://www.w3.org/1999/xlink" width="24.93" height="16.333" viewBox="0 0 24.93 16.333"><defs><linearGradient id="a" x1="0.5" x2="0.5" y2="1" gradientUnits="objectBoundingBox"><stop offset="0" stop-color="#f68f3d"/><stop offset="1" stop-color="#f05e63"/></linearGradient></defs><g transform="translate(-4.687 -20.312)"><path d="M29.617,23.733a3.421,3.421,0,0,0-3.42-3.42H8.107a3.421,3.421,0,0,0-3.42,3.42v9.493a3.421,3.421,0,0,0,3.42,3.42H26.2a3.421,3.421,0,0,0,3.42-3.42Zm-1.274,0v9.493a1.926,1.926,0,0,1-.656,1.556,1.724,1.724,0,0,1-1.49.563H8.107a1.771,1.771,0,0,1-1.514-.562,1.9,1.9,0,0,1-.625-1.556V23.733a1.531,1.531,0,0,1,.625-1.358,1.963,1.963,0,0,1,1.514-.781H26.2a1.92,1.92,0,0,1,1.49.781A1.557,1.557,0,0,1,28.343,23.733Zm-20.067.283,8.6,7.369a.43.43,0,0,0,.559,0l8.6-7.369a.429.429,0,1,0-.559-.652l-8.317,7.129L8.835,23.363a.429.429,0,1,0-.559.652Z" fill-rule="evenodd" fill="url(#a)"/></g></svg>