<svg xmlns="http://www.w3.org/2000/svg" xmlns:xlink="http://www.w3.org/1999/xlink" width="25.298" height="18.333" viewBox="0 0 25.298 18.333"><defs><linearGradient id="a" x1="0.5" x2="0.5" y2="1" gradientUnits="objectBoundingBox"><stop offset="0" stop-color="#f68f3d"/><stop offset="1" stop-color="#f05e63"/></linearGradient></defs><g transform="translate(-7.995 -16.633)"><path d="M8.482,20.916A4.069,4.069,0,0,1,12.3,16.633H29.964a4.069,4.069,0,0,1,3.816,4.283.768.768,0,1,1-1.526,0,2.441,2.441,0,0,0-2.29-2.57H12.3a2.441,2.441,0,0,0-2.29,2.57.815.815,0,0,1-.763.857.814.814,0,0,1-.763-.857ZM12.3,34.966a4.069,4.069,0,0,1-3.816-4.283.814.814,0,0,1,.763-.857.814.814,0,0,1,.763.857,2.441,2.441,0,0,0,2.29,2.57H29.964a2.441,2.441,0,0,0,2.29-2.57.768.768,0,1,1,1.526,0,4.069,4.069,0,0,1-3.816,4.283Z" transform="translate(-0.487)" fill-rule="evenodd" fill="url(#a)"/><path d="M9.916,26.423a.508.508,0,1,0,1.017,0v-.759l.658.38a.509.509,0,1,0,.509-.881l-.658-.38.658-.38a.509.509,0,1,0-.509-.881l-.658.38v-.759a.508.508,0,1,0-1.017,0V23.9l-.658-.38a.509.509,0,1,0-.508.881l.657.38-.657.38a.509.509,0,1,0,.508.881l.658-.38Zm5.98.509a.509.509,0,0,1-.509-.509v-.759l-.657.38a.509.509,0,1,1-.509-.881l.658-.38-.658-.38a.509.509,0,1,1,.509-.881l.657.38v-.759a.509.509,0,1,1,1.018,0V23.9l.658-.38a.509.509,0,0,1,.508.881l-.658.38.658.38a.509.509,0,0,1-.508.881l-.658-.38v.759A.509.509,0,0,1,15.9,26.932Zm4.962-.509a.509.509,0,1,0,1.018,0v-.759l.657.38a.509.509,0,1,0,.509-.881l-.658-.38.658-.38a.509.509,0,0,0-.508-.881l-.658.38v-.759a.509.509,0,1,0-1.018,0V23.9l-.658-.38a.509.509,0,0,0-.508.881l.658.38-.658.38a.509.509,0,0,0,.508.881l.658-.38Zm5.471,0a.508.508,0,1,0,1.017,0v-.759l.658.38a.509.509,0,1,0,.509-.881l-.658-.38.657-.38A.509.509,0,1,0,28,23.521l-.658.38v-.759a.508.508,0,1,0-1.017,0V23.9l-.658-.38a.509.509,0,0,0-.509.881l.658.38-.658.38a.509.509,0,0,0,.509.881l.658-.38Z" transform="translate(2.5 1.018)" fill-rule="evenodd" fill="url(#a)"/></g></svg>