<svg xmlns="http://www.w3.org/2000/svg" xmlns:xlink="http://www.w3.org/1999/xlink" width="40" height="40" viewBox="0 0 40 40"><defs><clipPath id="b"><rect width="40" height="40"/></clipPath></defs><g id="a" clip-path="url(#b)"><g transform="translate(-11.544 -8.299)"><g transform="translate(14.544 8.299)"><path d="M47.633,10.634,37.643,8.416a4.938,4.938,0,0,0-5.655,2.9H19.578a5,5,0,0,0-5,5V19.3a1,1,0,0,0,2,0V16.309a2.994,2.994,0,0,1,3-3H31.567v29.97H19.576a2.994,2.994,0,0,1-3-3V37.292a1,1,0,0,0-2,0v2.994a5,5,0,0,0,5,5H31.988A4.924,4.924,0,0,0,36.544,48.3a5.252,5.252,0,0,0,1.1-.12l9.989-2.218a4.981,4.981,0,0,0,3.917-4.876V15.508a4.961,4.961,0,0,0-3.917-4.876Zm1.918,30.45A2.956,2.956,0,0,1,47.213,44l-9.989,2.218a2.916,2.916,0,0,1-2.518-.579A2.961,2.961,0,0,1,33.588,43.3l0-30.012a2.992,2.992,0,0,1,3-3,2.483,2.483,0,0,1,.659.081l9.989,2.218a2.973,2.973,0,0,1,2.338,2.916V41.063Z" transform="translate(-14.564 -8.299)" fill="#ffa766"/><path d="M22.481,40a1.375,1.375,0,0,0-1.97,0L14.96,45.55a1.375,1.375,0,0,0,0,1.97l5.551,5.551a1.39,1.39,0,0,0,.971.416,1.341,1.341,0,0,0,.971-.416,1.375,1.375,0,0,0,0-1.97l-3.193-3.193H29.78a1.387,1.387,0,0,0,0-2.774H19.259l3.193-3.193a1.375,1.375,0,0,0,0-1.97Z" transform="translate(-17.544 -26.535)" fill="#f16261"/></g></g><g transform="translate(5.83 -1.275)"><g transform="translate(19.999 15.5)"><path d="M20,56.019v1.489a1,1,0,0,0,1,1h6.854a1,1,0,0,0,1-1V56.019a2.528,2.528,0,0,0-2.528-2.53H22.528A2.535,2.535,0,0,0,20,56.019Zm2.529-1.939h3.794a1.938,1.938,0,0,1,1.939,1.939v1.489a.408.408,0,0,1-.409.409H21a.408.408,0,0,1-.409-.409V56.019a1.942,1.942,0,0,1,1.939-1.939Z" transform="translate(-19.999 -48.532)" fill="#ffa766" stroke="#ffa766" stroke-width="0.5"/><path d="M35.508,19.516A2.508,2.508,0,1,0,33,17.008,2.511,2.511,0,0,0,35.508,19.516Zm0-4.426a1.918,1.918,0,1,1-1.918,1.918A1.919,1.919,0,0,1,35.508,15.09Z" transform="translate(-31.082 -14.5)" fill="#ffa766" stroke="#ffa766" stroke-width="0.5"/></g></g></g></svg>