<svg xmlns="http://www.w3.org/2000/svg" xmlns:xlink="http://www.w3.org/1999/xlink" width="40" height="40" viewBox="0 0 40 40"><defs><clipPath id="b"><rect width="40" height="40"/></clipPath></defs><g id="a" clip-path="url(#b)"><g transform="translate(3 1)"><path d="M26.057,37.7c-3.62-4.387-11.594-13.8-11.594-20.62a12.17,12.17,0,0,1,24.34,0c0,6.841-7.979,16.226-11.6,20.629a.74.74,0,0,1-1.146-.008Zm9.818-3.281c4.768.93,10.828,3.351,2.274,5.776-6.338,1.8-16.694,1.8-23.031,0-8.557-2.426-2.5-4.849,2.274-5.776a.73.73,0,0,0-.282-1.433c-2.719.528-7.783,1.871-7.783,4.589,0,1.664,2.059,3.08,5.389,4.024,6.6,1.873,17.232,1.873,23.837,0,3.329-.944,5.388-2.36,5.388-4.024,0-2.718-5.064-4.06-7.783-4.589a.73.73,0,0,0-.282,1.433ZM26.5,35.923l.138.167c3.336-4.044,10.7-12.9,10.7-19.014C37.331,7.65,25.792,2.9,19.07,9.571a10.539,10.539,0,0,0-3.133,7.505C15.936,23.131,23.186,31.913,26.5,35.923Z" transform="translate(-9.327 -5)" fill="#ffa766" stroke="#ffa766" stroke-width="1.2" fill-rule="evenodd"/><path d="M18.134,6.983a5.448,5.448,0,0,0-5.495,5.4,5.513,5.513,0,0,0,9.38,3.818,5.4,5.4,0,0,0-3.885-9.219Zm2.953,2.5a4.19,4.19,0,0,0-7.128,2.9,4.19,4.19,0,0,0,7.128,2.9,4.055,4.055,0,0,0,0-5.8Z" transform="translate(-0.829 -0.425)" fill="#f05f63" stroke="#f05f63" stroke-width="1.2" fill-rule="evenodd"/></g></g></svg>