<svg xmlns="http://www.w3.org/2000/svg" xmlns:xlink="http://www.w3.org/1999/xlink" width="40" height="40" viewBox="0 0 40 40"><defs><clipPath id="b"><rect width="40" height="40"/></clipPath></defs><g id="a" clip-path="url(#b)"><g transform="translate(0 1)"><g transform="translate(0 0)"><path d="M12.885,977.374a.974.974,0,0,0-.98.976,1,1,0,0,0,1.076.889H49.988a.937.937,0,1,0,0-1.865H12.981Q12.933,977.372,12.885,977.374Z" transform="translate(-11.483 -970.636)" fill="#ffa766" stroke="#ffa766" stroke-width="0.5"/><path d="M42.234,963.343a1.023,1.023,0,0,0-.924.626.917.917,0,0,0,.267,1.037l7.372,6.427v27.4H36.818a.961.961,0,1,0,0,1.918H49.974A.994.994,0,0,0,51,999.794V971.029a.929.929,0,0,0-.32-.7l-7.692-6.712a1.066,1.066,0,0,0-.753-.27Zm-22.612.015a1.059,1.059,0,0,0-.609.255l-7.692,6.712a.929.929,0,0,0-.321.7v28.765a1.028,1.028,0,0,0,2.051,0v-28.36l7.067-6.158H38.179a.961.961,0,1,0,0-1.918H19.718Q19.67,963.356,19.622,963.358Z" transform="translate(-11 -963.342)" fill="#ffa766" stroke="#ffa766" stroke-width="0.5"/><path d="M48.83,964.338a.932.932,0,0,0-.83.947v5.594a.932.932,0,1,0,1.865,0v-5.594a.933.933,0,0,0-1.034-.947Z" transform="translate(-28.932 -963.87)" fill="#ffa766" stroke="#ffa766" stroke-width="0.5"/></g><g transform="translate(25.221 12.343) rotate(90)"><g transform="translate(0 0)"><path d="M17.261,0a.706.706,0,0,0-.689.708V2.59H10.285a.705.705,0,1,0,0,1.41h7a.708.708,0,0,0,.705-.705V2.1l4.176,3.068L17.988,8.239V7.054a.708.708,0,0,0-.705-.711H7.494V4.466A.7.7,0,0,0,6.37,3.9L.288,8.359a.708.708,0,0,0,0,1.139L6.37,13.962a.708.708,0,0,0,1.124-.57V11.516h6.287a.708.708,0,1,0,0-1.416H6.789a.708.708,0,0,0-.705.705V12L1.9,8.929,6.084,5.862V7.054a.708.708,0,0,0,.705.705h9.783V9.635a.708.708,0,0,0,1.128.574l6.078-4.462a.708.708,0,0,0,0-1.145L17.7.139A.708.708,0,0,0,17.261,0Z" fill="#f05f63" stroke="#f05f63" stroke-width="0.5"/></g></g></g></g></svg>