<svg xmlns="http://www.w3.org/2000/svg" xmlns:xlink="http://www.w3.org/1999/xlink" width="40" height="40" viewBox="0 0 40 40"><defs><clipPath id="b"><rect width="40" height="40"/></clipPath></defs><g id="a" clip-path="url(#b)"><g transform="translate(1 1)"><path d="M18.521,2.25a5.271,5.271,0,1,0,2.906,9.669,13.9,13.9,0,0,1,1.465,15.965,1.438,1.438,0,0,0,2.489,1.439,16.779,16.779,0,0,0-1.949-19.48,1.447,1.447,0,0,0-.121-.122,5.273,5.273,0,0,0-4.79-7.472Zm-2.4,5.271a2.4,2.4,0,1,1,2.4,2.4A2.4,2.4,0,0,1,16.125,7.521Z" transform="translate(9.75 -2.25)" fill="#ffa766" fill-rule="evenodd"/><path d="M8.794,15.264A13.9,13.9,0,0,1,21.854,6.125a1.438,1.438,0,0,0,0-2.875A16.777,16.777,0,0,0,5.918,14.784a5.269,5.269,0,1,0,2.876.48ZM4.125,20.021a2.4,2.4,0,1,1,2.4,2.4A2.4,2.4,0,0,1,4.125,20.021Z" transform="translate(-1.25 -1.333)" fill="#ffa766" fill-rule="evenodd"/><path d="M7,15.968a1.437,1.437,0,1,0-2.489,1.439,16.8,16.8,0,0,0,17.873,8.05,5.271,5.271,0,1,0-.95-3.02q0,.137.007.272a13.984,13.984,0,0,1-2.4.207A13.89,13.89,0,0,1,7,15.968Zm19.7,4.074a2.4,2.4,0,1,0,2.4,2.4A2.4,2.4,0,0,0,26.707,20.042Z" transform="translate(1.564 9.667)" fill="#ffa766" fill-rule="evenodd"/><path d="M10,14.5A4.543,4.543,0,1,0,14.543,10,4.522,4.522,0,0,0,10,14.5Zm4.543-3a3,3,0,1,1-3.029,3A3.015,3.015,0,0,1,14.543,11.5Z" transform="translate(13.766 -9.275)" fill="#f16261" stroke="#f16261" stroke-width="1.2"/><path d="M10,14.581A4.56,4.56,0,1,0,14.56,10,4.571,4.571,0,0,0,10,14.581Zm4.56-3.054a3.054,3.054,0,1,1-3.04,3.054A3.047,3.047,0,0,1,14.56,11.527Z" transform="translate(-9.232 4.037)" fill="#f16261" stroke="#f16261" stroke-width="1.2"/><path d="M10,14.581A4.56,4.56,0,1,0,14.56,10,4.571,4.571,0,0,0,10,14.581Zm4.56-3.054a3.054,3.054,0,1,1-3.04,3.054A3.047,3.047,0,0,1,14.56,11.527Z" transform="translate(13.733 17.349)" fill="#f16261" stroke="#f16261" stroke-width="1.2"/></g></g></svg>