<svg xmlns="http://www.w3.org/2000/svg" xmlns:xlink="http://www.w3.org/1999/xlink" width="40" height="40" viewBox="0 0 40 40"><defs><clipPath id="b"><rect width="40" height="40"/></clipPath></defs><g id="a" clip-path="url(#b)"><g transform="translate(1.812)"><g transform="translate(-1 3.231)"><path d="M6.017,21.016c.164-6.089,4.538-12.7,10.347-14.661.984-.333,1.678-.718,1.346-1.7s-.926-1.069-1.909-.735a17.9,17.9,0,0,0-12.442,17.1C2.4,21.7,1.14,23.083,1.14,24.348a3.763,3.763,0,1,0,7.525,0c0-1.5-1.38-2.728-2.649-3.333Z" transform="translate(-1.14 -3.74)" fill="#f16261"/></g><g transform="translate(26.053 28.325) rotate(180)"><path d="M.769.005A.863.863,0,0,0,0,.882V15.128a.863.863,0,1,0,1.727,0V.882A.863.863,0,0,0,.769.005Z" transform="translate(5.183 0.645)" fill="#f05f63" stroke="#f05f63" stroke-width="0.5"/><path d="M5.925.009a.864.864,0,0,0-.54.3L.205,6.349a.866.866,0,0,0,1.322,1.12L6.047,2.194l4.519,5.275a.866.866,0,1,0,1.322-1.12L6.708.306a.863.863,0,0,0-.782-.3Z" transform="translate(0 0)" fill="#f05f63" stroke="#f05f63" stroke-width="0.5"/></g><path d="M11.777,7.1C11.613,13.184,7.239,19.8,1.43,21.756c-.984.333-1.678.718-1.346,1.7s.926,1.069,1.909.735A17.9,17.9,0,0,0,14.434,7.1c.957-.682,2.219-2.067,2.219-3.332a3.763,3.763,0,1,0-7.525,0c0,1.5,1.38,2.728,2.649,3.333Z" transform="matrix(0.53, 0.848, -0.848, 0.53, 26.928, 20.298)" fill="#f16261"/><path d="M11.777,7.1C11.613,13.184,7.239,19.8,1.43,21.756c-.984.333-1.678.718-1.346,1.7s.926,1.069,1.909.735A17.9,17.9,0,0,0,14.434,7.1c.957-.682,2.219-2.067,2.219-3.332a3.763,3.763,0,1,0-7.525,0c0,1.5,1.38,2.728,2.649,3.333Z" transform="translate(15.294 13.808) rotate(-60)" fill="#f16261"/></g></g></svg>