<svg xmlns="http://www.w3.org/2000/svg" xmlns:xlink="http://www.w3.org/1999/xlink" width="40" height="40" viewBox="0 0 40 40"><defs><clipPath id="b"><rect width="40" height="40"/></clipPath></defs><g id="a" clip-path="url(#b)"><g transform="translate(1 2.179)"><path d="M32.262,36.411s1.9-4.119,3.254-7.069h0a3.133,3.133,0,0,1,1.9-1.714,2.823,2.823,0,0,1,2.437.383l2.071,1.414a3.269,3.269,0,0,1,1.582,2.053L45.8,35.951c0,.005.022.024.024.03l3.557,2.415a1.329,1.329,0,0,1,.541.8c.845-.015,1.7-.009,2.539.025a1.164,1.164,0,0,1,.678.2,1.422,1.422,0,0,1,.453.679c.521,1.318.807,1.6.955,1.6h2.9a.641.641,0,0,1,.609.668v.668h1.832a.612.612,0,1,1,1.219,0v1.336a.612.612,0,1,1-1.219,0H58.054v.668a.641.641,0,0,1-.609.668H53.172v1.345a1.89,1.89,0,0,1,1.71,1.6l.414,2.266a.716.716,0,0,1-.126.555.59.59,0,0,1-.471.245H48.6a.59.59,0,0,1-.471-.245A.716.716,0,0,1,48,50.921l.414-2.266a1.89,1.89,0,0,1,1.71-1.6V45.707H48.9a.641.641,0,0,1-.609-.668v-.607a1.757,1.757,0,0,0-1.091.228c-.5.343-.783,1.134-.827,2.353-.011.313-.013.628-.016.943a12.124,12.124,0,0,1-.26,2.91c-.341,1.349-1.331,2.791-2.773,2.973a.569.569,0,0,1-.071,0,.55.55,0,0,1-.09-.009L43.057,55.5a1.416,1.416,0,0,1-.1.418,3.137,3.137,0,0,1,1.23,2.529v.292a.641.641,0,0,1-.609.668H39.308a.641.641,0,0,1-.609-.668V56.063a.716.716,0,0,1,.057-.279,1.44,1.44,0,0,1-.054-.292l-.426-6.739L37.266,47.5l-.33,7.952a1.464,1.464,0,0,1-.043.287,3.1,3.1,0,0,1,1.5,2.7v.292a.641.641,0,0,1-.609.668H33.511a.641.641,0,0,1-.609-.668V56.063a.7.7,0,0,1,.14-.421,1.464,1.464,0,0,1-.025-.19L32.433,41.4c0-.015,0-.029,0-.043A5.8,5.8,0,0,1,32.262,36.411ZM51.341,47.044h.612V45.708h-.612Zm-1.734,1.873-.268,1.467h4.615l-.268-1.467a.629.629,0,0,0-.6-.537H50.207a.629.629,0,0,0-.6.537Zm2.851-8.312-.019-.047h-.028c-.907-.037-1.827-.044-2.735-.022h-.014c-.016,0-.03,0-.046,0l-.435.823a1.3,1.3,0,0,1-.267.346H52.94A11.344,11.344,0,0,1,52.458,40.605Zm-2.948,3.766h7.324V43.036H49.511Zm-4.588,6.137a10.84,10.84,0,0,0,.216-2.564c0-.329.005-.658.017-.985.061-1.689.533-2.846,1.4-3.436a2.807,2.807,0,0,1,1.733-.429v-.727a.709.709,0,0,1,.111-.382,1.139,1.139,0,0,1-.916-.161L45.53,40.508l.5,1.233a1.388,1.388,0,0,1-.587,1.747l-1.1.576a1.11,1.11,0,0,1-.945.053,1.283,1.283,0,0,1-.7-.712L41,39.247l-.824,1.877,3.085,4.812a2.153,2.153,0,0,1,.326,1.3L43.251,52.5a2.54,2.54,0,0,0,1.672-1.99ZM43.7,39.278l-.342-.23a1.317,1.317,0,0,1-.47-.536l-.814-1.7-.382.87c.042.1.083.213.137.322l1.985,4.86,1.1-.577Zm-3.785,18.79h3.015a1.6,1.6,0,0,0-1.524-1.336H39.917Zm-.726-10.2a1.4,1.4,0,0,1,.3.785l.427,6.741h1.49l.042,0h.391l.535-8.261a.718.718,0,0,0-.108-.433l-3.085-4.813a1.447,1.447,0,0,1-.1-1.346L41.5,35.03a.609.609,0,0,1,.539-.379h.01a.6.6,0,0,1,.54.358l1.391,2.89,4.144,2.787.609-1.155-3.54-2.4a1.273,1.273,0,0,1-.463-.523l-2.324-4.544a.71.71,0,0,1-.058-.156,1.963,1.963,0,0,0-.983-1.292.58.58,0,0,1-.06-.036l-2.1-1.433a1.7,1.7,0,0,0-1.463-.23A1.881,1.881,0,0,0,36.6,29.943C35.251,32.888,33.357,37,33.357,37h0a4.3,4.3,0,0,0,.571,4.36ZM35.717,55.4l.388-9.33-2.38-2.945.51,12.275h1.482Zm-1.6,2.672h3.015a1.6,1.6,0,0,0-1.524-1.336H34.12Z" transform="translate(-31.792 -21.583)" fill="#333"/><path d="M74.864,8.945a3.968,3.968,0,1,1,7.937,0,3.884,3.884,0,0,1-.182,1.156l1.2.768a.608.608,0,0,1-.192,1.106,4.688,4.688,0,0,1-6.223,1.193.6.6,0,0,1-.273-.647A3.963,3.963,0,0,1,74.864,8.945Zm6.718,0a2.748,2.748,0,0,0-4.305-2.259L81.538,9.41a2.673,2.673,0,0,0,.045-.465Zm.866,2.553-2.382-1.471L78.593,12.4a3.477,3.477,0,0,0,3.855-.908Zm-4.7-.039,1.342-2.168-2.6-1.661a.6.6,0,0,1-.047-.037,2.727,2.727,0,0,0,1.3,3.866Z" transform="translate(-67.913 -4.976)" fill="#333"/><path d="M.609,65.868a.609.609,0,0,1,.609.609,1.254,1.254,0,0,0,1.23,1.273,1.23,1.23,0,0,0,1.141-.813A.609.609,0,0,1,4.7,66.861a.732.732,0,0,0,1.312-.013.609.609,0,0,1,1.046-.066,1.012,1.012,0,0,0,.833.445A1.047,1.047,0,0,0,8.914,66.16a.61.61,0,0,1,.588-.609,1.595,1.595,0,0,0-.058-3.185A.609.609,0,0,1,8.81,61.5a1.071,1.071,0,0,0-.92-1.53,1.024,1.024,0,0,0-.931.623A.609.609,0,0,1,5.8,60.469a1.536,1.536,0,0,0-3.044.343.609.609,0,1,1-1.219,0A2.789,2.789,0,0,1,4.3,58a2.76,2.76,0,0,1,2.255,1.2,2.215,2.215,0,0,1,1.335-.449,2.266,2.266,0,0,1,2.243,2.284q0,.1-.009.2a2.827,2.827,0,0,1-.054,5.466A2.256,2.256,0,0,1,7.89,68.447,2.217,2.217,0,0,1,6.6,68.03a1.94,1.94,0,0,1-2.335.116,2.433,2.433,0,0,1-1.814.823A2.473,2.473,0,0,1,0,66.478a.609.609,0,0,1,.609-.609Z" transform="translate(26.797 -40.642)" fill="#f68d3f"/><path d="M19.5,72.4h-.028a.609.609,0,0,1-.027-1.218.609.609,0,0,0,.582-.636.61.61,0,0,1,.581-.636.62.62,0,0,1,.636.581A1.828,1.828,0,0,1,19.5,72.4Z" transform="translate(12.004 -49.028)" fill="#f68d3f"/><path d="M13.576,77.7a.61.61,0,0,1-.281,1.186.611.611,0,0,0-.736.452.609.609,0,0,1-1.185-.282,1.832,1.832,0,0,1,2.2-1.356Z" transform="translate(21.495 -54.292)" fill="#f68d3f"/></g></g></svg>