<svg xmlns="http://www.w3.org/2000/svg" xmlns:xlink="http://www.w3.org/1999/xlink" width="40" height="40" viewBox="0 0 40 40"><defs><clipPath id="b"><rect width="40" height="40"/></clipPath></defs><g id="a" clip-path="url(#b)"><g transform="translate(-6.971 -3.984)"><path d="M27.586,3.984A12.026,12.026,0,1,1,15.561,16.01,12.025,12.025,0,0,1,27.586,3.984Zm10.227,40a1.212,1.212,0,1,1,0-2.424h4.579V36.546a4.1,4.1,0,0,0-4.09-4.09H16.87a4.1,4.1,0,0,0-4.09,4.09V41.56H31.986a1.212,1.212,0,0,1,0,2.424H11.568a1.212,1.212,0,0,1-1.212-1.212V36.546a6.524,6.524,0,0,1,6.514-6.514H38.3a6.524,6.524,0,0,1,6.514,6.514v6.226A1.212,1.212,0,0,1,43.6,43.984ZM34.374,9.22a9.6,9.6,0,1,0,0,13.579A9.6,9.6,0,0,0,34.374,9.22Z" transform="translate(0 0)" fill="#f68d3f" stroke="#f68d3f" stroke-width="0.5" fill-rule="evenodd"/></g></g></svg>